<svg xmlns="http://www.w3.org/2000/svg" width="40" height="40" viewBox="0 0 40 40"><defs><style>.a{fill:#c59d79;}</style></defs><g transform="translate(-3 -3)"><path class="a" d="M40.759,35.683V28H38v7.6c.23-.007.459-.017.69-.017.7,0,1.385.034,2.069.1Z" transform="translate(-10.862 -7.759)"/><path class="a" d="M48.759,24H46V34.866a22.394,22.394,0,0,1,2.759.781Z" transform="translate(-13.345 -6.517)"/><path class="a" d="M56.759,20H54V35.6a22.482,22.482,0,0,1,2.759,1.687Z" transform="translate(-15.828 -5.276)"/><path class="a" d="M3,40.974V53.406a1.379,1.379,0,1,0,2.759,0V41.682h-.69A3.413,3.413,0,0,1,3,40.974Z" transform="translate(0 -11.785)"/><circle class="a" cx="3.5" cy="3.5" r="3.5" transform="translate(5 5)"/><path class="a" d="M47,3h1.379v9.655H47Z" transform="translate(-13.655)"/><path class="a" d="M24.851,9.619a2.561,2.561,0,0,1,1.526-.508h.288a2.542,2.542,0,0,1,2.323,1.519l3.667.458V7.133L23,8.34V9.881l1.287.161Z" transform="translate(-6.207 -1.283)"/><path class="a" d="M14.034,30.621a2.071,2.071,0,0,0-2.069-2.069H9.207V18.207h5.477a3.464,3.464,0,0,0,2.117-.726l4.371-3.4A1.162,1.162,0,0,0,20.457,12h-.288a1.173,1.173,0,0,0-.7.233l-4.655,3.491a2.077,2.077,0,0,1-1.241.414H6.448A3.452,3.452,0,0,0,3,19.586v9.655A2.071,2.071,0,0,0,5.069,31.31H9.9a1.381,1.381,0,0,1,1.379,1.379v4.137a1.375,1.375,0,0,0,.3.852,2.629,2.629,0,0,1,.28-.441l.129-.133a22.769,22.769,0,0,1,2.048-1.781v-4.7Z" transform="translate(0 -2.793)"/><path class="a" d="M39,5h4.138v6.9H39Z" transform="translate(-11.172 -0.621)"/><path class="a" d="M35.9,41a6.9,6.9,0,1,0,6.9,6.9A6.9,6.9,0,0,0,35.9,41Zm5.479,7.467-.426.208a1.379,1.379,0,0,0-.916,1.291,1.359,1.359,0,0,0,.183.669l.233.413-.3.365A5.518,5.518,0,1,1,41.414,47.9c0,.041,0,.082-.006.123Z" transform="translate(-8.069 -11.793)"/><path class="a" d="M23.9,48.221a8.248,8.248,0,0,1,2.786-6.176A21.111,21.111,0,0,0,17.3,47.413l-.041.04a1.276,1.276,0,0,0,0,1.537l.04.039A21.111,21.111,0,0,0,26.683,54.4,8.249,8.249,0,0,1,23.9,48.221Z" transform="translate(-4.345 -12.117)"/><path class="a" d="M56.386,47.453l-.04-.039a21.112,21.112,0,0,0-9.386-5.368,8.238,8.238,0,0,1,0,12.352,21.111,21.111,0,0,0,9.385-5.368l.041-.04a1.276,1.276,0,0,0,0-1.537Z" transform="translate(-13.643 -12.117)"/><path class="a" d="M38.217,45.212a2.72,2.72,0,0,1,.3,1.233A2.751,2.751,0,0,1,33.3,47.668a4.136,4.136,0,0,0,6.746,4.481,2.655,2.655,0,0,1-.148-.876A2.757,2.757,0,0,1,41.261,48.9,4.15,4.15,0,0,0,38.217,45.212Z" transform="translate(-9.31 -13.1)"/><path class="a" d="M36.379,47.8a1.371,1.371,0,0,0,.483-2.658,4.117,4.117,0,0,0-1.8.907,1.343,1.343,0,0,0-.061.372A1.381,1.381,0,0,0,36.379,47.8Z" transform="translate(-9.931 -13.08)"/></g></svg>