<svg xmlns="http://www.w3.org/2000/svg" width="42" height="42" viewBox="0 0 42 42"><defs><style>.a{fill:#c59d79;}</style></defs><g transform="translate(-1 -1)"><path class="a" d="M10.419,8.122l.866,2.6h3.2V9.367H12.263L10.419,3.838,8.261,10.311,7.451,8.69H5v1.355H6.614l1.9,3.8Z" transform="translate(-1.29 -0.915)"/><path class="a" d="M39.613,32.839A3.391,3.391,0,0,0,43,29.452V11.839a3.391,3.391,0,0,0-2.741-3.322,7.446,7.446,0,0,0-14.838-.065H15.9A7.452,7.452,0,1,0,3.956,14.393a4.726,4.726,0,0,0-1.6,3.543V21.78a6.61,6.61,0,0,0,4.065,6.106v1.9a7.936,7.936,0,0,0-4.065,6.919V43H17.838v-.016a5.57,5.57,0,0,0,2.028-.488l5.511-2.505a2.309,2.309,0,0,0,.58-.379h2.817a2.029,2.029,0,0,0,1.908-1.355H40.968a2.032,2.032,0,1,0,0-4.065H36.9a.678.678,0,0,1-.677-.677v-.677Zm0-1.355H16.234a7.982,7.982,0,0,0-4.4-2.55v-1a2.83,2.83,0,0,0,.924-.518H41.645v2.032A2.035,2.035,0,0,1,39.613,31.484Zm-12.194,2.71H26.224a4.607,4.607,0,0,0-3.547,1.677V32.839H28.1v1.423A3.384,3.384,0,0,0,27.419,34.194ZM18.487,38l-.345-2.417a7.848,7.848,0,0,0-.937-2.747h4.118v3.875ZM9.548,18.612l.49-.98a.673.673,0,0,1,.606-.375h3.9a.677.677,0,1,1,0,1.355ZM32.839,3.032a6.1,6.1,0,1,1-6.1,6.1A6.1,6.1,0,0,1,32.839,3.032ZM25.422,9.806a7.449,7.449,0,0,0,14.826.112,2.028,2.028,0,0,1,1.4,1.92V26.065H13.651a2.808,2.808,0,0,0,.114-1.085l-.5-5.012h1.284a2.032,2.032,0,1,0,0-4.065H13.125a3.363,3.363,0,0,0-.552-1.254,7.4,7.4,0,0,0,3.192-4.842ZM2.355,8.452a6.1,6.1,0,1,1,9.2,5.234,3.355,3.355,0,0,0-1.746-.492H7.1a4.712,4.712,0,0,0-1.9.4A6.1,6.1,0,0,1,2.355,8.452ZM3.71,17.935A3.391,3.391,0,0,1,7.1,14.548h2.71A2.033,2.033,0,0,1,11.722,15.9H10.644a2.022,2.022,0,0,0-1.818,1.123l-.793,1.587H3.71Zm0,3.844V19.967H5.566a3.1,3.1,0,0,0-.5,1.694,3.152,3.152,0,0,0,.917,2.214l.438.438v2.061A5.254,5.254,0,0,1,3.71,21.78Zm3.23,1.137a1.789,1.789,0,0,1-.52-1.256,1.764,1.764,0,0,1,.52-1.256l.438-.438H11.9l.515,5.148a1.473,1.473,0,0,1-.426,1.194,1.492,1.492,0,0,1-1.047.434H9.129V28.1h1.355v.686c-.066,0-.13-.009-.2-.009a7.881,7.881,0,0,0-2.514.415V23.752ZM19.305,41.264a4.258,4.258,0,0,1-5.84-2.653l-.977-3.256-1.3.389L12.167,39A5.585,5.585,0,0,0,13.9,41.645H3.71V36.707a6.578,6.578,0,0,1,13.09-.93l.4,2.809-.9.41.561,1.233,4.011-1.824.793,1.784Zm5.512-2.506L22.9,39.63l-.793-1.785,1.882-.856a1.015,1.015,0,0,1,.427-.086.971.971,0,0,1,.4,1.855Zm3.957-.5H26.707a2.255,2.255,0,0,0,.035-.383,2.317,2.317,0,0,0-1.5-2.164,3.188,3.188,0,0,1,.984-.163h1.195a2.035,2.035,0,0,1,2.032,2.032.678.678,0,0,1-.677.677Zm8.129-2.71h4.065a.677.677,0,1,1,0,1.355H30.738a3.379,3.379,0,0,0-1.286-2.015v-2.05h5.419v.677A2.035,2.035,0,0,0,36.9,35.548Z"/><path class="a" d="M57,42h1.355v1.355H57Z" transform="translate(-18.065 -13.226)"/><path class="a" d="M49,42h1.355v1.355H49Z" transform="translate(-15.484 -13.226)"/><path class="a" d="M53,42h1.355v1.355H53Z" transform="translate(-16.774 -13.226)"/><path class="a" d="M42,8h1.355V9.355H42Z" transform="translate(-13.226 -2.258)"/><path class="a" d="M46,8h5.419V9.355H46Z" transform="translate(-14.516 -2.258)"/><path class="a" d="M42,12h1.355v1.355H42Z" transform="translate(-13.226 -3.548)"/><path class="a" d="M46,12h5.419v1.355H46Z" transform="translate(-14.516 -3.548)"/><path class="a" d="M42,16h1.355v1.355H42Z" transform="translate(-13.226 -4.839)"/><path class="a" d="M46,16h5.419v1.355H46Z" transform="translate(-14.516 -4.839)"/><path class="a" d="M32.774,28H26v5.419h6.774Zm-1.355,4.065H27.355v-2.71h4.065Z" transform="translate(-8.065 -8.71)"/><path class="a" d="M26,24h6.774v1.355H26Z" transform="translate(-8.065 -7.419)"/><path class="a" d="M26,20h6.774v1.355H26Z" transform="translate(-8.065 -6.129)"/><path class="a" d="M26,16h6.774v1.355H26Z" transform="translate(-8.065 -4.839)"/><path class="a" d="M38,34h1.355v1.355H38Z" transform="translate(-11.935 -10.645)"/><path class="a" d="M42,34H53.516v1.355H42Z" transform="translate(-13.226 -10.645)"/><path class="a" d="M38,30H52.226v1.355H38Z" transform="translate(-11.935 -9.355)"/><path class="a" d="M38,26H52.226v1.355H38Z" transform="translate(-11.935 -8.065)"/></g></svg>