<svg xmlns="http://www.w3.org/2000/svg" width="39" height="39" viewBox="0 0 39 39"><defs><style>.a{fill:#c59d79;}</style></defs><g transform="translate(-16 -16)"><path class="a" d="M54.35,42H44.6V36.15a.65.65,0,0,0-.19-.46l-5.2-5.2a.65.65,0,0,0-.919,0l-2.79,2.79-2.79-2.79a.65.65,0,0,0-.919,0l-1.5,1.5a4.583,4.583,0,0,0-2.026-3.529,3.257,3.257,0,0,0,.429-3.436L31.41,22.31a.65.65,0,0,0,0-.919l-5.2-5.2a.65.65,0,0,0-.46-.19h-9.1a.65.65,0,0,0-.65.65V22.5a.65.65,0,0,0,.65.65h2.981l2.891,2.891a3.274,3.274,0,0,0-.022.359,3.236,3.236,0,0,0,.734,2.06,4.55,4.55,0,0,0,.566,7.9V38.1a.65.65,0,0,0,.65.65H26.4V42H16.65a.65.65,0,0,0-.65.65v2.6a.65.65,0,0,0,.65.65H29v3.25a.65.65,0,0,0,.19.46l5.2,5.2a.65.65,0,0,0,.46.19h9.1a.65.65,0,0,0,.65-.65v-5.2a.65.65,0,0,0-.65-.65H41.619l-2.6-2.6H54.35a.65.65,0,0,0,.65-.65v-2.6a.65.65,0,0,0-.65-.65ZM22.5,44.6H17.3V43.3h5.2ZM38.75,31.869l4.55,4.55V42H41.35V36.15a.65.65,0,0,0-.65-.65H36.8a.65.65,0,0,0-.65.65V42H34.2V36.419ZM40.05,42h-2.6V36.8h2.6Zm-7.8-10.131L34.581,34.2l-1.3,1.3H28.619ZM19.9,21.85H17.3V17.3h8.181l4.55,4.55-2.122,2.122a3.267,3.267,0,0,0-1.041-.623l-.2-.2.84-.84a.65.65,0,0,0,0-.919l-1.95-1.95a.65.65,0,0,0-.919,0l-1.95,1.95a.65.65,0,0,0,0,.919l1.336,1.336a3.241,3.241,0,0,0-1.031,1.031L20.36,22.04a.65.65,0,0,0-.46-.19Zm5.39.84a.648.648,0,0,0-.149.232L24.069,21.85,25.1,20.819l1.031,1.031ZM25.1,37.45V35.928a.65.65,0,0,0-.433-.613,3.251,3.251,0,0,1-.069-6.1.65.65,0,0,0,.116-1.158,1.951,1.951,0,0,1,.463-3.517,1.952,1.952,0,0,1,2.174.75,1.953,1.953,0,0,1-.565,2.767.65.65,0,0,0,.116,1.158A3.266,3.266,0,0,1,29,32.25a3.212,3.212,0,0,1-.274,1.305L26.59,35.691a.648.648,0,0,0-.189.46h0v1.3Zm2.6-.65h5.2V42H27.7Zm13.65,13H43.3v3.9H35.119L30.3,48.881V45.9h1.3v1.95a.65.65,0,0,0,.19.46l3.25,3.25a.65.65,0,0,0,.919,0l1.95-1.95a.65.65,0,0,0,0-.919l-1.49-1.49,1.031-1.031,3.44,3.44a.65.65,0,0,0,.46.19Zm-6.31-2.14,1.49,1.49L35.5,50.181l-2.6-2.6V45.9h2.981l-.84.84a.65.65,0,0,0,0,.919ZM53.7,44.6H23.8V43.3H53.7Z" transform="translate(0 0)"/><path class="a" d="M260.15,16h-9.1a.65.65,0,0,0-.46.19l-3.9,3.9a.65.65,0,0,0-.19.46V23.8h-.65a.65.65,0,0,0-.46.19l-5.2,5.2a.65.65,0,0,0,.46,1.11h6.5a.65.65,0,0,0,.46-.19l4.74-4.74,4.74,4.74.919-.919-3.44-3.44,2.6-2.6h2.981a.65.65,0,0,0,.65-.65V16.65a.65.65,0,0,0-.65-.65ZM246.881,29h-4.662l3.9-3.9h4.662Zm4.36-5.66a.65.65,0,0,0-.19.46h-.65V22.119l1.3-1.3,1.031,1.031Zm8.26-1.49h-2.6a.65.65,0,0,0-.46.19l-2.79,2.79-.84-.84h0a.648.648,0,0,0-.232-.149l1.533-1.533a.65.65,0,0,0,0-.919l-1.95-1.95a.65.65,0,0,0-.919,0l-1.95,1.95a.65.65,0,0,0-.19.46V23.8h-1.3V20.819l3.519-3.519H259.5Z" transform="translate(-205.8)"/></g></svg>