<svg xmlns="http://www.w3.org/2000/svg" xmlns:xlink="http://www.w3.org/1999/xlink" width="117.988" height="47.23" viewBox="0 0 117.988 47.23"><defs><style>.a{fill:none;}.b{fill:#073e65;}.c{clip-path:url(#a);}.d{fill:url(#b);}</style><clipPath id="a"><path class="a" d="M499.133,845.055l3.522,2.42H493.19Zm-19.516-1.343,4.306,3.76H472.652Zm-18.77.937h8.609l10.165-5.486,6.283,5.486h3.04l10.193-4.148,5.43,3.732v2.419l-5.216-3.578L488.6,847.441h-2.037l-6.705-5.856L469,847.441h-8.154Zm0-4.551h8.609l10.165-5.486L485.9,840.1h3.04l10.193-4.148,5.427,3.738v2.419l-5.215-3.584L488.6,842.9h-2.037l-6.705-5.856L469,842.9h-8.154Zm0-4.551h8.609l10.165-5.486,6.283,5.486h3.04l10.193-4.148,5.43,3.732v2.42l-5.219-3.588L488.6,838.338h-2.037l-6.705-5.856L469,838.338h-8.154Zm0-4.551h8.609l10.165-5.486L485.9,831h3.04l10.193-4.148,5.43,3.732V833l-5.216-3.584L488.6,833.789h-2.041l-6.705-5.856L469,833.789h-8.154Zm0-9.1h13.336l-5.176,2.794h-8.16Zm0,4.551h8.609l10.165-5.486,6.283,5.486h3.04l10.193-4.148,5.43,3.732v2.419l-5.216-3.584L488.6,829.239h-2.041l-6.7-5.855L469,829.241h-8.155Zm22.514-4.551h5.579l10.193-4.152,5.43,3.732V823.9l-5.215-3.584L488.6,824.688h-2.037Zm-22.514-4.551h28.094l10.193-4.148,5.43,3.732v2.419l-5.217-3.583L488.6,820.138h-7.248l-1.493-1.3-2.418,1.3H460.847Zm0-4.551h28.094l10.193-4.148,5.429,3.732v2.419l-5.215-3.584L488.6,815.586h-27.75Zm0-4.551h28.094l10.193-4.148,5.43,3.732v2.419l-5.216-3.584L488.6,811.034H460.847Zm0-4.486H495.3l-6.7,2.729H460.847Zm40.9,0h2.819V805.7ZM459.09,849.23h47.23V802H459.09Z" transform="translate(-459.09 -802)"/></clipPath><linearGradient id="b" x1="-0.673" y1="2.286" x2="-0.672" y2="2.286" gradientUnits="objectBoundingBox"><stop offset="0" stop-color="#ffd3ad"/><stop offset="0.08" stop-color="#ffd3ad"/><stop offset="0.43" stop-color="#e8bd98"/><stop offset="0.87" stop-color="#c59d79"/><stop offset="1" stop-color="#c59d79"/></linearGradient></defs><g transform="translate(-627.837 -363.387)"><path class="b" d="M985.7,861.016h8.976a3.313,3.313,0,0,1,1.938.46,2.207,2.207,0,0,1,.85,1.193,5.8,5.8,0,0,1,.23,1.525H999.6v1.589H982.44l.954-1.589H996.1a2.049,2.049,0,0,0-.262-1.128,1.262,1.262,0,0,0-1.169-.463H985.7Zm-.716,3.972V853.419l1.589-.349v11.918Z" transform="translate(-292.185 -483.592)"/><path class="b" d="M1115.9,972.811a.922.922,0,1,1,.271.651.889.889,0,0,1-.271-.651m2.743,0a.922.922,0,1,1,.271.651.888.888,0,0,1-.271-.651" transform="translate(-409.727 -588.238)"/><path class="b" d="M863.354,315.67v3.177h1.907v1.589h-5.4v-1.589h1.906V316.02Z" transform="translate(-153.082 61.754)"/><path class="b" d="M1163.789,861.016h8.976a3.312,3.312,0,0,1,1.938.46,2.207,2.207,0,0,1,.85,1.193,5.809,5.809,0,0,1,.23,1.525h1.908v1.589H1160.93v-1.59h13.265a2.052,2.052,0,0,0-.262-1.128,1.262,1.262,0,0,0-1.168-.46h-8.976Zm-.716,3.972V853.419l1.589-.349v11.918Z" transform="translate(-449.387 -483.592)"/><path class="b" d="M1309.719,886.19a.922.922,0,1,1,.27.651.888.888,0,0,1-.27-.651" transform="translate(-580.43 -511.949)"/><path class="b" d="M1296.97,913.419h-.715l-.794-1.589h2.652l4.273,7.657-1.319,1.224q-1.01-1.824-2.048-3.646t-2.049-3.646m-1.431,2.526h6.641v1.589h-6.641Z" transform="translate(-567.872 -535.344)"/><path class="b" d="M1341.409,888.491a.922.922,0,1,1,.271.651.887.887,0,0,1-.271-.651m2.743,0a.922.922,0,1,1,.27.651.887.887,0,0,1-.27-.651" transform="translate(-608.341 -513.975)"/><path class="b" d="M1088.865,315.67v3.177h1.907v1.589h-5.4v-1.589h1.906V316.02Z" transform="translate(-351.697 61.754)"/><path class="b" d="M1389.908,853.08v12.344q0,.3-.635.365h-2.863V864.2h1.908V853.428Z" transform="translate(-647.974 -483.6)"/><path class="b" d="M1423.989,853.08v11.44q0,.557.6.525a2.518,2.518,0,0,0,.905-.174,1.193,1.193,0,0,1-.612.716,2.214,2.214,0,0,1-1.064.278,1.575,1.575,0,0,1-1-.31,1.21,1.21,0,0,1-.421-1.033V853.428Z" transform="translate(-679.672 -483.6)"/><path class="b" d="M989.1,1136.389a.922.922,0,1,1,.27.651.887.887,0,0,1-.27-.651m2.743,0a.922.922,0,1,1,.27.651.887.887,0,0,1-.27-.651" transform="translate(-298.049 -732.308)"/><path class="b" d="M985.674,1037.095H979.24l1.335-2.224a1.039,1.039,0,0,0,.477.477,1.357,1.357,0,0,0,.6.159h3.1Zm-.588,0-3.67-6.4a3.092,3.092,0,0,1-.493-2.8,4.51,4.51,0,0,1,1.462-1.811,5.949,5.949,0,0,0,.762-.651,1.287,1.287,0,0,0,.27-.905l5.386,9.389h-1.827l-3.765-6.513a1.4,1.4,0,0,0-.723,1.024,2.142,2.142,0,0,0,.31,1.485l4.1,7.181Zm4.877-3.177h-2.478v-1.589h2.478Z" transform="translate(-289.366 -634.602)"/><rect class="b" width="5.402" height="1.589" transform="translate(699.963 397.727)"/><rect class="b" width="5.402" height="1.589" transform="translate(704.729 397.727)"/><path class="b" d="M1147.218,996.68v12.344q0,.3-.636.366h-2.862V1007.8h1.908V997.029Z" transform="translate(-434.229 -610.074)"/><path class="b" d="M1181.26,996.68V1007.8h1.908v1.589h-2.863q-.636-.063-.636-.366V997.029Z" transform="translate(-465.892 -610.074)"/><rect class="b" width="7.34" height="1.589" transform="translate(716.643 397.727)"/><rect class="b" width="5.402" height="1.589" transform="translate(723.347 397.727)"/><rect class="b" width="5.402" height="1.589" transform="translate(728.113 397.727)"/><path class="b" d="M1340.529,1055.822l-3.529-3.844,1.048-1.446,3.765,4.1Zm-3.194-1.1h6.2v1.589h-6.2Zm2.78.794v-5.211l1.589-.349v5.56Z" transform="translate(-604.457 -656.999)"/><path class="b" d="M1389.908,996.68v12.344q0,.3-.635.366h-2.863V1007.8h1.908V997.029Z" transform="translate(-647.974 -610.074)"/><path class="b" d="M1423.989,996.68v11.439q0,.557.6.525a2.52,2.52,0,0,0,.905-.174,1.192,1.192,0,0,1-.612.716,2.215,2.215,0,0,1-1.064.278,1.576,1.576,0,0,1-1-.31,1.21,1.21,0,0,1-.421-1.033V997.028Z" transform="translate(-679.672 -610.074)"/><g class="c" transform="translate(627.837 363.387)"><rect class="d" width="66.792" height="66.792" transform="translate(-23.613 23.299) rotate(-44.62)"/></g></g></svg>