<svg xmlns="http://www.w3.org/2000/svg" xmlns:xlink="http://www.w3.org/1999/xlink" width="204.488" height="81.855" viewBox="0 0 204.488 81.855"><defs><style>.a{fill:none;}.b{fill:#fff;}.c{clip-path:url(#a);}.d{fill:url(#b);}</style><clipPath id="a"><path class="a" d="M528.489,876.62l6.1,4.194h-16.4Zm-33.823-2.328,7.462,6.517H482.594Zm-32.531,1.625h14.92l17.617-9.508,10.889,9.508h5.269l17.665-7.189,9.411,6.468v4.192l-9.039-6.2-18.638,7.568H506.7l-11.621-10.149-18.81,10.149H462.135Zm0-7.888h14.92l17.617-9.508,10.889,9.508h5.269l17.665-7.189,9.405,6.478v4.192l-9.039-6.211-18.632,7.582H506.7l-11.621-10.149-18.81,10.149H462.135Zm0-7.888h14.92l17.617-9.509,10.889,9.509h5.269l17.665-7.189,9.411,6.468v4.194l-9.045-6.218-18.632,7.582H506.7l-11.621-10.149-18.81,10.149H462.135Zm0-7.888h14.92l17.617-9.508,10.889,9.508h5.269l17.665-7.189,9.411,6.468v4.192l-9.039-6.211-18.632,7.582H506.7l-11.621-10.149-18.81,10.149H462.135Zm0-15.774h23.114l-8.971,4.843H462.135Zm0,7.888h14.92l17.617-9.508,10.889,9.508h5.269l17.665-7.189,9.411,6.468v4.192l-9.039-6.211-18.632,7.582H506.7l-11.619-10.147-18.81,10.149H462.135Zm39.019-7.888h9.67l17.665-7.2,9.411,6.468v4.2l-9.039-6.212-18.632,7.582H506.7Zm-39.019-7.888h48.691l17.665-7.189,9.411,6.468v4.192l-9.041-6.209-18.632,7.582H497.667l-2.588-2.261-4.19,2.261H462.135Zm0-7.888h48.691l17.665-7.189,9.409,6.468v4.192l-9.039-6.212-18.632,7.582H462.135Zm0-7.888h48.691l17.665-7.189L537.9,812.1v4.192l-9.039-6.211-18.632,7.582h-48.1Zm0-7.774h59.715l-11.619,4.729h-48.1Zm70.879,0H537.9v3.365ZM459.09,883.855h81.855V802H459.09Z" transform="translate(-459.09 -802)"/></clipPath><linearGradient id="b" x1="-0.673" y1="2.286" x2="-0.672" y2="2.286" gradientUnits="objectBoundingBox"><stop offset="0" stop-color="#ffd3ad"/><stop offset="0.08" stop-color="#ffd3ad"/><stop offset="0.43" stop-color="#e8bd98"/><stop offset="0.87" stop-color="#c59d79"/><stop offset="1" stop-color="#c59d79"/></linearGradient></defs><g transform="translate(-1393.512 -246)"><path class="b" d="M988.083,866.841h15.557a5.741,5.741,0,0,1,3.359.8,3.825,3.825,0,0,1,1.474,2.067,10.056,10.056,0,0,1,.4,2.644h3.307V875.1H982.44l1.654-2.753h22.026a3.551,3.551,0,0,0-.455-1.956,2.187,2.187,0,0,0-2.026-.8H988.083Zm-1.24,6.883V853.676l2.753-.606v20.656Z" transform="translate(519.25 -596.514)"/><path class="b" d="M1115.9,973.488a1.6,1.6,0,1,1,.469,1.129,1.54,1.54,0,0,1-.469-1.129m4.754,0a1.6,1.6,0,1,1,.469,1.129,1.539,1.539,0,0,1-.469-1.129" transform="translate(413.378 -690.771)"/><path class="b" d="M865.916,315.67v5.507h3.305v2.753H859.86v-2.753h3.3v-4.9Z" transform="translate(670.465 -45.343)"/><path class="b" d="M1165.885,866.841h15.556a5.741,5.741,0,0,1,3.359.8,3.825,3.825,0,0,1,1.474,2.067,10.071,10.071,0,0,1,.4,2.644h3.307V875.1h-29.05v-2.755h22.99a3.556,3.556,0,0,0-.455-1.955,2.187,2.187,0,0,0-2.024-.8h-15.556Zm-1.24,6.883V853.676l2.753-.606v20.656Z" transform="translate(377.655 -596.514)"/><path class="b" d="M1309.719,886.866a1.6,1.6,0,1,1,.467,1.128,1.538,1.538,0,0,1-.467-1.128" transform="translate(259.622 -622.056)"/><path class="b" d="M1298.076,914.583h-1.24l-1.376-2.753h4.6l7.406,13.27-2.286,2.121q-1.75-3.16-3.549-6.319t-3.551-6.319m-2.48,4.378h11.509v2.753H1295.6Z" transform="translate(270.933 -643.128)"/><path class="b" d="M1341.409,889.168a1.6,1.6,0,1,1,.469,1.129,1.538,1.538,0,0,1-.469-1.129m4.754,0a1.6,1.6,0,1,1,.468,1.129,1.537,1.537,0,0,1-.467-1.129" transform="translate(234.481 -623.88)"/><path class="b" d="M1091.426,315.67v5.507h3.305v2.753h-9.362v-2.753h3.3v-4.9Z" transform="translate(491.569 -45.343)"/><path class="b" d="M1392.472,853.08v21.394q0,.523-1.1.633h-4.961v-2.751h3.307V853.684Z" transform="translate(198.783 -596.521)"/><path class="b" d="M1425.153,853.08v19.827q0,.965,1.046.91a4.362,4.362,0,0,0,1.569-.3,2.068,2.068,0,0,1-1.061,1.24,3.838,3.838,0,0,1-1.844.481,2.73,2.73,0,0,1-1.734-.537,2.1,2.1,0,0,1-.73-1.79V853.684Z" transform="translate(170.232 -596.521)"/><path class="b" d="M989.1,1137.066a1.6,1.6,0,1,1,.467,1.129,1.537,1.537,0,0,1-.467-1.129m4.754,0a1.6,1.6,0,1,1,.467,1.129,1.538,1.538,0,0,1-.467-1.129" transform="translate(513.968 -820.538)"/><path class="b" d="M990.392,1046.306H979.24l2.313-3.855a1.8,1.8,0,0,0,.827.827,2.35,2.35,0,0,0,1.046.275H988.8Zm-1.019,0-6.36-11.1q-1.707-2.945-.854-4.845a7.818,7.818,0,0,1,2.534-3.138,10.313,10.313,0,0,0,1.321-1.129,2.231,2.231,0,0,0,.467-1.569l9.335,16.272h-3.167l-6.526-11.288a2.419,2.419,0,0,0-1.253,1.775,3.711,3.711,0,0,0,.537,2.573l7.1,12.446Zm8.452-5.507h-4.3v-2.753h4.3Z" transform="translate(521.789 -732.532)"/><rect class="b" width="9.362" height="2.753" transform="translate(1518.515 305.514)"/><rect class="b" width="9.362" height="2.753" transform="translate(1526.774 305.514)"/><path class="b" d="M1149.783,996.68v21.394q0,.523-1.1.635h-4.961v-2.753h3.307v-18.67Z" transform="translate(391.307 -710.439)"/><path class="b" d="M1182.425,996.68v19.273h3.307v2.753h-4.961q-1.1-.109-1.1-.635V997.286Z" transform="translate(362.789 -710.439)"/><rect class="b" width="12.721" height="2.753" transform="translate(1547.424 305.514)"/><rect class="b" width="9.362" height="2.753" transform="translate(1559.042 305.514)"/><rect class="b" width="9.362" height="2.753" transform="translate(1567.303 305.514)"/><path class="b" d="M1343.116,1060.12l-6.116-6.662,1.817-2.505,6.526,7.1Zm-5.535-1.9h10.738v2.753h-10.738Zm4.818,1.377v-9.031l2.753-.606v9.636Z" transform="translate(237.98 -752.706)"/><path class="b" d="M1392.472,996.68v21.394q0,.523-1.1.635h-4.961v-2.753h3.307v-18.67Z" transform="translate(198.783 -710.439)"/><path class="b" d="M1425.153,996.68V1016.5q0,.965,1.046.909a4.369,4.369,0,0,0,1.569-.3,2.066,2.066,0,0,1-1.061,1.24,3.841,3.841,0,0,1-1.844.482,2.731,2.731,0,0,1-1.734-.537,2.1,2.1,0,0,1-.73-1.79V997.283Z" transform="translate(170.232 -710.439)"/><g class="c" transform="translate(1393.512 246)"><rect class="d" width="115.758" height="115.758" transform="translate(-40.923 40.38) rotate(-44.62)"/></g></g></svg>